<!DOCTYPE svg PUBLIC "-//W3C//DTD SVG 1.1//EN" "http://www.w3.org/Graphics/SVG/1.1/DTD/svg11.dtd">
<!-- Uploaded to: SVG Repo, www.svgrepo.com, Transformed by: SVG Repo Mixer Tools -->
<svg fill="#ffffff" height="64px" width="64px" version="1.1" id="Capa_1" xmlns="http://www.w3.org/2000/svg" xmlns:xlink="http://www.w3.org/1999/xlink" viewBox="-48.9 -48.9 586.80 586.80" xml:space="preserve" transform="matrix(1, 0, 0, 1, 0, 0)" stroke="#ffffff">
<g id="SVGRepo_bgCarrier" stroke-width="0">
<rect x="-48.9" y="-48.9" width="586.80" height="586.80" rx="293.4" fill="#43d6a5" strokewidth="0"/>
</g>
<g id="SVGRepo_tracerCarrier" stroke-linecap="round" stroke-linejoin="round"/>
<g id="SVGRepo_iconCarrier"> <g> <g> <path d="M417.4,71.6C371.2,25.4,309.8,0,244.5,0S117.8,25.4,71.6,71.6S0,179.2,0,244.5s25.4,126.7,71.6,172.9S179.2,489,244.5,489 s126.7-25.4,172.9-71.6S489,309.8,489,244.5S463.6,117.8,417.4,71.6z M244.5,462C124.6,462,27,364.4,27,244.5S124.6,27,244.5,27 S462,124.6,462,244.5S364.4,462,244.5,462z"/> <path d="M301.6,188.1l-84.1,84.2l-30.1-30.1c-5.3-5.3-13.8-5.3-19.1,0c-5.3,5.3-5.3,13.8,0,19.1L208,301c2.6,2.6,6.1,4,9.5,4 s6.9-1.3,9.5-4l93.7-93.7c5.3-5.3,5.3-13.8,0-19.1C315.5,182.8,306.9,182.8,301.6,188.1z"/> </g> </g> </g>
</svg>